<svg width="402" height="594" viewBox="0 0 402 594" fill="none" xmlns="http://www.w3.org/2000/svg">
<g filter="url(#filter0_d)">
<path d="M91.7338 126V93.636H4.3858V77.628L89.9938 0.545997H106.002V79.368H125.49V93.636H106.002V126H91.7338ZM22.6558 79.368H91.7338V19.86L22.6558 79.368ZM161.415 126C155.499 126 150.511 123.97 146.451 119.91C142.391 115.734 140.361 110.746 140.361 104.946V21.948C140.361 16.032 142.391 11.044 146.451 6.984C150.511 2.808 155.499 0.719995 161.415 0.719995H245.805C251.605 0.719995 256.535 2.808 260.595 6.984C264.771 11.044 266.859 16.032 266.859 21.948V104.946C266.859 110.746 264.771 115.734 260.595 119.91C256.535 123.97 251.605 126 245.805 126H161.415ZM156.369 111.732H245.805C247.661 111.732 249.227 111.094 250.503 109.818C251.895 108.426 252.591 106.802 252.591 104.946V32.388L156.369 111.732ZM154.629 94.506L250.677 15.162H161.415C159.559 15.162 157.935 15.858 156.543 17.25C155.267 18.526 154.629 20.092 154.629 21.948V94.506ZM363.949 126V93.636H276.601V77.628L362.209 0.545997H378.217V79.368H397.705V93.636H378.217V126H363.949ZM294.871 79.368H363.949V19.86L294.871 79.368ZM54.0681 226V197.24H78.0681C79.4015 197.24 80.5348 197.72 81.4681 198.68C82.4015 199.613 82.8681 200.733 82.8681 202.04V210.48C82.8681 211.787 82.4015 212.92 81.4681 213.88C80.5348 214.813 79.4015 215.28 78.0681 215.28H57.3081V226H54.0681ZM58.8681 212H78.0681C78.4948 212 78.8548 211.853 79.1481 211.56C79.4681 211.267 79.6281 210.907 79.6281 210.48V202.04C79.6281 201.613 79.4681 201.253 79.1481 200.96C78.8548 200.64 78.4948 200.48 78.0681 200.48H58.8681C58.4415 200.48 58.0681 200.64 57.7481 200.96C57.4548 201.253 57.3081 201.613 57.3081 202.04V210.48C57.3081 210.907 57.4548 211.267 57.7481 211.56C58.0681 211.853 58.4415 212 58.8681 212ZM90.3888 226C89.0554 226 87.9088 225.533 86.9488 224.6C86.0154 223.64 85.5488 222.493 85.5488 221.16V212.76H105.869V207.64C105.869 207.213 105.709 206.853 105.389 206.56C105.095 206.24 104.735 206.08 104.309 206.08H85.5488V202.8H104.309C105.669 202.8 106.815 203.28 107.749 204.24C108.709 205.173 109.189 206.307 109.189 207.64V226H90.3888ZM90.3888 222.72H105.869V216.04H88.8288V221.16C88.8288 221.587 88.9754 221.96 89.2688 222.28C89.5888 222.573 89.9621 222.72 90.3888 222.72ZM113.127 226V207.64C113.127 206.307 113.594 205.173 114.527 204.24C115.487 203.28 116.634 202.8 117.967 202.8H131.007V206.08H117.967C117.54 206.08 117.167 206.24 116.847 206.56C116.554 206.853 116.407 207.213 116.407 207.64V226H113.127ZM138.396 226C137.062 226 135.916 225.533 134.956 224.6C134.022 223.64 133.556 222.493 133.556 221.16V207.64C133.556 206.307 134.022 205.173 134.956 204.24C135.916 203.28 137.062 202.8 138.396 202.8H152.316C153.676 202.8 154.822 203.28 155.756 204.24C156.716 205.173 157.196 206.307 157.196 207.64V216.04H136.836V221.16C136.836 221.587 136.982 221.96 137.276 222.28C137.596 222.573 137.969 222.72 138.396 222.72H157.196V226H138.396ZM136.836 212.76H153.876V207.64C153.876 207.213 153.716 206.853 153.396 206.56C153.102 206.24 152.742 206.08 152.316 206.08H138.396C137.969 206.08 137.596 206.24 137.276 206.56C136.982 206.853 136.836 207.213 136.836 207.64V212.76ZM165.31 226C163.976 226 162.83 225.533 161.87 224.6C160.936 223.64 160.47 222.493 160.47 221.16V207.64C160.47 206.307 160.936 205.173 161.87 204.24C162.83 203.28 163.976 202.8 165.31 202.8H184.03V206.08H165.31C164.883 206.08 164.51 206.24 164.19 206.56C163.896 206.853 163.75 207.213 163.75 207.64V221.16C163.75 221.587 163.896 221.96 164.19 222.28C164.51 222.573 164.883 222.72 165.31 222.72H184.11V226H165.31ZM192.107 226C190.773 226 189.627 225.533 188.667 224.6C187.733 223.64 187.267 222.493 187.267 221.16V207.64C187.267 206.307 187.733 205.173 188.667 204.24C189.627 203.28 190.773 202.8 192.107 202.8H206.027C207.387 202.8 208.533 203.28 209.467 204.24C210.427 205.173 210.907 206.307 210.907 207.64V216.04H190.547V221.16C190.547 221.587 190.693 221.96 190.987 222.28C191.307 222.573 191.68 222.72 192.107 222.72H210.907V226H192.107ZM190.547 212.76H207.587V207.64C207.587 207.213 207.427 206.853 207.107 206.56C206.813 206.24 206.453 206.08 206.027 206.08H192.107C191.68 206.08 191.307 206.24 190.987 206.56C190.693 206.853 190.547 207.213 190.547 207.64V212.76ZM244.98 235.2V226H229.5C228.14 226 226.98 225.533 226.02 224.6C225.087 223.64 224.62 222.493 224.62 221.16V207.64C224.62 206.307 225.087 205.173 226.02 204.24C226.98 203.28 228.14 202.8 229.5 202.8H248.26V235.2H244.98ZM229.5 222.72H243.42C243.847 222.72 244.207 222.573 244.5 222.28C244.82 221.96 244.98 221.587 244.98 221.16V207.64C244.98 207.213 244.82 206.853 244.5 206.56C244.207 206.24 243.847 206.08 243.42 206.08H229.5C229.074 206.08 228.7 206.24 228.38 206.56C228.087 206.853 227.94 207.213 227.94 207.64V221.16C227.94 221.587 228.087 221.96 228.38 222.28C228.7 222.573 229.074 222.72 229.5 222.72ZM256.327 226C254.994 226 253.847 225.533 252.887 224.6C251.954 223.64 251.487 222.493 251.487 221.16V202.8H254.767V221.16C254.767 221.587 254.914 221.96 255.207 222.28C255.527 222.573 255.901 222.72 256.327 222.72H270.247C270.674 222.72 271.047 222.573 271.367 222.28C271.687 221.96 271.847 221.587 271.847 221.16V202.8H275.127V221.16C275.127 222.493 274.647 223.64 273.687 224.6C272.754 225.533 271.607 226 270.247 226H256.327ZM283.474 226C282.14 226 280.994 225.533 280.034 224.6C279.1 223.64 278.634 222.493 278.634 221.16V207.64C278.634 206.307 279.1 205.173 280.034 204.24C280.994 203.28 282.14 202.8 283.474 202.8H297.394C298.754 202.8 299.9 203.28 300.834 204.24C301.794 205.173 302.274 206.307 302.274 207.64V216.04H281.914V221.16C281.914 221.587 282.06 221.96 282.354 222.28C282.674 222.573 283.047 222.72 283.474 222.72H302.274V226H283.474ZM281.914 212.76H298.954V207.64C298.954 207.213 298.794 206.853 298.474 206.56C298.18 206.24 297.82 206.08 297.394 206.08H283.474C283.047 206.08 282.674 206.24 282.354 206.56C282.06 206.853 281.914 207.213 281.914 207.64V212.76ZM322.068 226C320.734 226 319.588 225.533 318.628 224.6C317.694 223.64 317.228 222.493 317.228 221.16V207.64C317.228 206.307 317.694 205.173 318.628 204.24C319.588 203.28 320.734 202.8 322.068 202.8H335.988C337.348 202.8 338.494 203.28 339.428 204.24C340.388 205.173 340.868 206.307 340.868 207.64V216.04H320.508V221.16C320.508 221.587 320.654 221.96 320.948 222.28C321.268 222.573 321.641 222.72 322.068 222.72H340.868V226H322.068ZM320.508 212.76H337.548V207.64C337.548 207.213 337.388 206.853 337.068 206.56C336.774 206.24 336.414 206.08 335.988 206.08H322.068C321.641 206.08 321.268 206.24 320.948 206.56C320.654 206.853 320.508 207.213 320.508 207.64V212.76ZM349.022 226C347.688 226 346.542 225.533 345.582 224.6C344.648 223.64 344.182 222.493 344.182 221.16V195.2H347.462V221.16C347.462 221.587 347.608 221.96 347.902 222.28C348.222 222.573 348.595 222.72 349.022 222.72H352.942V226H349.022ZM99.7455 276L86.9455 252.8H90.7855L101.665 272.8L112.545 252.8H116.385L103.545 276H99.7455ZM119.787 276V252.8H123.067V276H119.787ZM119.787 248.48V245.2H123.067V248.48H119.787ZM131.541 276C130.208 276 129.061 275.533 128.101 274.6C127.168 273.64 126.701 272.493 126.701 271.16V262.76H147.021V257.64C147.021 257.213 146.861 256.853 146.541 256.56C146.248 256.24 145.888 256.08 145.461 256.08H126.701V252.8H145.461C146.821 252.8 147.968 253.28 148.901 254.24C149.861 255.173 150.341 256.307 150.341 257.64V276H131.541ZM131.541 272.72H147.021V266.04H129.981V271.16C129.981 271.587 130.128 271.96 130.421 272.28C130.741 272.573 131.114 272.72 131.541 272.72ZM144.915 285.72V282.4H154.715C155.141 282.4 155.501 282.24 155.795 281.92C156.115 281.627 156.275 281.267 156.275 280.84V252.8H159.595V280.84C159.595 282.2 159.115 283.347 158.155 284.28C157.221 285.24 156.075 285.72 154.715 285.72H144.915ZM156.275 248.48V245.2H159.595V248.48H156.275ZM168.064 276C166.73 276 165.584 275.533 164.624 274.6C163.69 273.64 163.224 272.493 163.224 271.16V257.64C163.224 256.307 163.69 255.173 164.624 254.24C165.584 253.28 166.73 252.8 168.064 252.8H181.984C183.344 252.8 184.49 253.28 185.424 254.24C186.384 255.173 186.864 256.307 186.864 257.64V266.04H166.504V271.16C166.504 271.587 166.65 271.96 166.944 272.28C167.264 272.573 167.637 272.72 168.064 272.72H186.864V276H168.064ZM166.504 262.76H183.544V257.64C183.544 257.213 183.384 256.853 183.064 256.56C182.77 256.24 182.41 256.08 181.984 256.08H168.064C167.637 256.08 167.264 256.24 166.944 256.56C166.65 256.853 166.504 257.213 166.504 257.64V262.76ZM206.657 276C205.324 276 204.177 275.533 203.217 274.6C202.284 273.64 201.817 272.493 201.817 271.16V257.64C201.817 256.307 202.284 255.173 203.217 254.24C204.177 253.28 205.324 252.8 206.657 252.8H220.577C221.937 252.8 223.084 253.28 224.017 254.24C224.977 255.173 225.457 256.307 225.457 257.64V266.04H205.097V271.16C205.097 271.587 205.244 271.96 205.537 272.28C205.857 272.573 206.231 272.72 206.657 272.72H225.457V276H206.657ZM205.097 262.76H222.137V257.64C222.137 257.213 221.977 256.853 221.657 256.56C221.364 256.24 221.004 256.08 220.577 256.08H206.657C206.231 256.08 205.857 256.24 205.537 256.56C205.244 256.853 205.097 257.213 205.097 257.64V262.76ZM229.633 276V252.8H248.433C249.766 252.8 250.899 253.28 251.833 254.24C252.793 255.173 253.273 256.307 253.273 257.64V276H249.993V257.64C249.993 257.213 249.833 256.853 249.513 256.56C249.219 256.24 248.859 256.08 248.433 256.08H234.513C234.086 256.08 233.713 256.24 233.393 256.56C233.073 256.853 232.913 257.213 232.913 257.64V276H229.633ZM262.284 276C260.924 276 259.778 275.533 258.844 274.6C257.911 273.64 257.444 272.493 257.444 271.16V245.2H260.724V252.8H270.764V256.08H260.724V271.16C260.724 271.587 260.871 271.96 261.164 272.28C261.484 272.573 261.858 272.72 262.284 272.72H270.764V276H262.284ZM273.81 276V257.64C273.81 256.307 274.277 255.173 275.21 254.24C276.17 253.28 277.317 252.8 278.65 252.8H291.69V256.08H278.65C278.224 256.08 277.85 256.24 277.53 256.56C277.237 256.853 277.09 257.213 277.09 257.64V276H273.81ZM299.079 276C297.746 276 296.599 275.533 295.639 274.6C294.706 273.64 294.239 272.493 294.239 271.16V257.64C294.239 256.307 294.706 255.173 295.639 254.24C296.599 253.28 297.746 252.8 299.079 252.8H312.999C314.359 252.8 315.506 253.28 316.439 254.24C317.399 255.173 317.879 256.307 317.879 257.64V266.04H297.519V271.16C297.519 271.587 297.666 271.96 297.959 272.28C298.279 272.573 298.653 272.72 299.079 272.72H317.879V276H299.079ZM297.519 262.76H314.559V257.64C314.559 257.213 314.399 256.853 314.079 256.56C313.786 256.24 313.426 256.08 312.999 256.08H299.079C298.653 256.08 298.279 256.24 297.959 256.56C297.666 256.853 297.519 257.213 297.519 257.64V262.76ZM38.1359 326C36.7759 326 35.6159 325.533 34.6559 324.6C33.7226 323.64 33.2559 322.493 33.2559 321.16V307.64C33.2559 306.307 33.7226 305.173 34.6559 304.24C35.6159 303.28 36.7759 302.8 38.1359 302.8H53.6159V295.2H56.8959V326H38.1359ZM38.1359 322.72H52.0559C52.4826 322.72 52.8426 322.573 53.1359 322.28C53.4559 321.96 53.6159 321.587 53.6159 321.16V307.64C53.6159 307.213 53.4559 306.853 53.1359 306.56C52.8426 306.24 52.4826 306.08 52.0559 306.08H38.1359C37.7093 306.08 37.3359 306.24 37.0159 306.56C36.7226 306.853 36.5759 307.213 36.5759 307.64V321.16C36.5759 321.587 36.7226 321.96 37.0159 322.28C37.3359 322.573 37.7093 322.72 38.1359 322.72ZM61.0956 326V302.8H64.3756V326H61.0956ZM61.0956 298.48V295.2H64.3756V298.48H61.0956ZM69.4959 326V302.8H100.136C101.496 302.8 102.643 303.28 103.576 304.24C104.509 305.173 104.976 306.307 104.976 307.64V326H101.736V307.64C101.736 307.213 101.576 306.853 101.256 306.56C100.936 306.24 100.563 306.08 100.136 306.08H90.4959C90.0693 306.08 89.6959 306.24 89.3759 306.56C89.0826 306.853 88.9359 307.213 88.9359 307.64V326H85.6159V307.64C85.6159 307.213 85.4559 306.853 85.1359 306.56C84.8426 306.24 84.4826 306.08 84.0559 306.08H74.3759C73.9493 306.08 73.5759 306.24 73.2559 306.56C72.9626 306.853 72.8159 307.213 72.8159 307.64V326H69.4959ZM113.318 326C111.984 326 110.838 325.533 109.878 324.6C108.944 323.64 108.478 322.493 108.478 321.16V307.64C108.478 306.307 108.944 305.173 109.878 304.24C110.838 303.28 111.984 302.8 113.318 302.8H127.238C128.598 302.8 129.744 303.28 130.678 304.24C131.638 305.173 132.118 306.307 132.118 307.64V316.04H111.758V321.16C111.758 321.587 111.904 321.96 112.198 322.28C112.518 322.573 112.891 322.72 113.318 322.72H132.118V326H113.318ZM111.758 312.76H128.798V307.64C128.798 307.213 128.638 306.853 128.318 306.56C128.024 306.24 127.664 306.08 127.238 306.08H113.318C112.891 306.08 112.518 306.24 112.198 306.56C111.904 306.853 111.758 307.213 111.758 307.64V312.76ZM136.293 326V302.8H155.093C156.426 302.8 157.559 303.28 158.493 304.24C159.453 305.173 159.933 306.307 159.933 307.64V326H156.653V307.64C156.653 307.213 156.493 306.853 156.173 306.56C155.879 306.24 155.519 306.08 155.093 306.08H141.173C140.746 306.08 140.373 306.24 140.053 306.56C139.733 306.853 139.573 307.213 139.573 307.64V326H136.293ZM168.744 326C167.411 326 166.264 325.533 165.304 324.6C164.371 323.64 163.904 322.493 163.904 321.16V320.84H167.184V321.16C167.184 321.587 167.331 321.96 167.624 322.28C167.944 322.573 168.318 322.72 168.744 322.72H182.664C183.091 322.72 183.451 322.573 183.744 322.28C184.064 321.96 184.224 321.587 184.224 321.16V317.6C184.224 317.173 184.064 316.813 183.744 316.52C183.451 316.2 183.091 316.04 182.664 316.04H168.744C167.411 316.04 166.264 315.573 165.304 314.64C164.371 313.68 163.904 312.533 163.904 311.2V307.64C163.904 306.307 164.371 305.173 165.304 304.24C166.264 303.28 167.411 302.8 168.744 302.8H182.664C184.024 302.8 185.171 303.28 186.104 304.24C187.064 305.173 187.544 306.307 187.544 307.64V307.96H184.224V307.64C184.224 307.213 184.064 306.853 183.744 306.56C183.451 306.24 183.091 306.08 182.664 306.08H168.744C168.318 306.08 167.944 306.24 167.624 306.56C167.331 306.853 167.184 307.213 167.184 307.64V311.2C167.184 311.627 167.331 312 167.624 312.32C167.944 312.613 168.318 312.76 168.744 312.76H182.664C184.024 312.76 185.171 313.24 186.104 314.2C187.064 315.133 187.544 316.267 187.544 317.6V321.16C187.544 322.493 187.064 323.64 186.104 324.6C185.171 325.533 184.024 326 182.664 326H168.744ZM191.486 326V302.8H194.766V326H191.486ZM191.486 298.48V295.2H194.766V298.48H191.486ZM204.607 326C203.273 326 202.127 325.533 201.167 324.6C200.233 323.64 199.767 322.493 199.767 321.16V307.64C199.767 306.307 200.233 305.173 201.167 304.24C202.127 303.28 203.273 302.8 204.607 302.8H218.527C219.887 302.8 221.033 303.28 221.967 304.24C222.927 305.173 223.407 306.307 223.407 307.64V321.16C223.407 322.493 222.927 323.64 221.967 324.6C221.033 325.533 219.887 326 218.527 326H204.607ZM204.607 322.72H218.527C218.953 322.72 219.313 322.573 219.607 322.28C219.927 321.96 220.087 321.587 220.087 321.16V307.64C220.087 307.213 219.927 306.853 219.607 306.56C219.313 306.24 218.953 306.08 218.527 306.08H204.607C204.18 306.08 203.807 306.24 203.487 306.56C203.193 306.853 203.047 307.213 203.047 307.64V321.16C203.047 321.587 203.193 321.96 203.487 322.28C203.807 322.573 204.18 322.72 204.607 322.72ZM226.996 326V302.8H245.796C247.129 302.8 248.263 303.28 249.196 304.24C250.156 305.173 250.636 306.307 250.636 307.64V326H247.356V307.64C247.356 307.213 247.196 306.853 246.876 306.56C246.583 306.24 246.223 306.08 245.796 306.08H231.876C231.449 306.08 231.076 306.24 230.756 306.56C230.436 306.853 230.276 307.213 230.276 307.64V326H226.996ZM259.568 326C258.234 326 257.088 325.533 256.128 324.6C255.194 323.64 254.728 322.493 254.728 321.16V307.64C254.728 306.307 255.194 305.173 256.128 304.24C257.088 303.28 258.234 302.8 259.568 302.8H273.488C274.848 302.8 275.994 303.28 276.928 304.24C277.888 305.173 278.368 306.307 278.368 307.64V316.04H258.008V321.16C258.008 321.587 258.154 321.96 258.448 322.28C258.768 322.573 259.141 322.72 259.568 322.72H278.368V326H259.568ZM258.008 312.76H275.048V307.64C275.048 307.213 274.888 306.853 274.568 306.56C274.274 306.24 273.914 306.08 273.488 306.08H259.568C259.141 306.08 258.768 306.24 258.448 306.56C258.154 306.853 258.008 307.213 258.008 307.64V312.76ZM287.143 326C285.809 326 284.663 325.533 283.703 324.6C282.769 323.64 282.303 322.493 282.303 321.16V320.84H285.583V321.16C285.583 321.587 285.729 321.96 286.023 322.28C286.343 322.573 286.716 322.72 287.143 322.72H301.063C301.489 322.72 301.849 322.573 302.143 322.28C302.463 321.96 302.623 321.587 302.623 321.16V317.6C302.623 317.173 302.463 316.813 302.143 316.52C301.849 316.2 301.489 316.04 301.063 316.04H287.143C285.809 316.04 284.663 315.573 283.703 314.64C282.769 313.68 282.303 312.533 282.303 311.2V307.64C282.303 306.307 282.769 305.173 283.703 304.24C284.663 303.28 285.809 302.8 287.143 302.8H301.063C302.423 302.8 303.569 303.28 304.503 304.24C305.463 305.173 305.943 306.307 305.943 307.64V307.96H302.623V307.64C302.623 307.213 302.463 306.853 302.143 306.56C301.849 306.24 301.489 306.08 301.063 306.08H287.143C286.716 306.08 286.343 306.24 286.023 306.56C285.729 306.853 285.583 307.213 285.583 307.64V311.2C285.583 311.627 285.729 312 286.023 312.32C286.343 312.613 286.716 312.76 287.143 312.76H301.063C302.423 312.76 303.569 313.24 304.503 314.2C305.463 315.133 305.943 316.267 305.943 317.6V321.16C305.943 322.493 305.463 323.64 304.503 324.6C303.569 325.533 302.423 326 301.063 326H287.143ZM320.863 326V302.8H339.663C340.996 302.8 342.13 303.28 343.063 304.24C344.023 305.173 344.503 306.307 344.503 307.64V326H341.223V307.64C341.223 307.213 341.063 306.853 340.743 306.56C340.45 306.24 340.09 306.08 339.663 306.08H325.743C325.316 306.08 324.943 306.24 324.623 306.56C324.303 306.853 324.143 307.213 324.143 307.64V326H320.863ZM352.849 326C351.515 326 350.369 325.533 349.409 324.6C348.475 323.64 348.009 322.493 348.009 321.16V307.64C348.009 306.307 348.475 305.173 349.409 304.24C350.369 303.28 351.515 302.8 352.849 302.8H366.769C368.129 302.8 369.275 303.28 370.209 304.24C371.169 305.173 371.649 306.307 371.649 307.64V321.16C371.649 322.493 371.169 323.64 370.209 324.6C369.275 325.533 368.129 326 366.769 326H352.849ZM352.849 322.72H366.769C367.195 322.72 367.555 322.573 367.849 322.28C368.169 321.96 368.329 321.587 368.329 321.16V307.64C368.329 307.213 368.169 306.853 367.849 306.56C367.555 306.24 367.195 306.08 366.769 306.08H352.849C352.422 306.08 352.049 306.24 351.729 306.56C351.435 306.853 351.289 307.213 351.289 307.64V321.16C351.289 321.587 351.435 321.96 351.729 322.28C352.049 322.573 352.422 322.72 352.849 322.72ZM103.315 376C101.981 376 100.835 375.533 99.8747 374.6C98.9414 373.64 98.4747 372.493 98.4747 371.16V370.84H101.755V371.16C101.755 371.587 101.901 371.96 102.195 372.28C102.515 372.573 102.888 372.72 103.315 372.72H117.235C117.661 372.72 118.021 372.573 118.315 372.28C118.635 371.96 118.795 371.587 118.795 371.16V367.6C118.795 367.173 118.635 366.813 118.315 366.52C118.021 366.2 117.661 366.04 117.235 366.04H103.315C101.981 366.04 100.835 365.573 99.8747 364.64C98.9414 363.68 98.4747 362.533 98.4747 361.2V357.64C98.4747 356.307 98.9414 355.173 99.8747 354.24C100.835 353.28 101.981 352.8 103.315 352.8H117.235C118.595 352.8 119.741 353.28 120.675 354.24C121.635 355.173 122.115 356.307 122.115 357.64V357.96H118.795V357.64C118.795 357.213 118.635 356.853 118.315 356.56C118.021 356.24 117.661 356.08 117.235 356.08H103.315C102.888 356.08 102.515 356.24 102.195 356.56C101.901 356.853 101.755 357.213 101.755 357.64V361.2C101.755 361.627 101.901 362 102.195 362.32C102.515 362.613 102.888 362.76 103.315 362.76H117.235C118.595 362.76 119.741 363.24 120.675 364.2C121.635 365.133 122.115 366.267 122.115 367.6V371.16C122.115 372.493 121.635 373.64 120.675 374.6C119.741 375.533 118.595 376 117.235 376H103.315ZM130.897 376C129.563 376 128.417 375.533 127.457 374.6C126.523 373.64 126.057 372.493 126.057 371.16V362.76H146.377V357.64C146.377 357.213 146.217 356.853 145.897 356.56C145.603 356.24 145.243 356.08 144.817 356.08H126.057V352.8H144.817C146.177 352.8 147.323 353.28 148.257 354.24C149.217 355.173 149.697 356.307 149.697 357.64V376H130.897ZM130.897 372.72H146.377V366.04H129.337V371.16C129.337 371.587 129.483 371.96 129.777 372.28C130.097 372.573 130.47 372.72 130.897 372.72ZM158.279 376C156.946 376 155.799 375.533 154.839 374.6C153.906 373.64 153.439 372.493 153.439 371.16V345.2H156.719V371.16C156.719 371.587 156.866 371.96 157.159 372.28C157.479 372.573 157.853 372.72 158.279 372.72H162.199V376H158.279ZM165.51 376V352.8H168.79V376H165.51ZM165.51 348.48V345.2H168.79V348.48H165.51ZM182.63 345.44L184.03 339.88H187.19L185.83 345.44H182.63ZM178.63 376C177.297 376 176.15 375.533 175.19 374.6C174.257 373.64 173.79 372.493 173.79 371.16V357.64C173.79 356.307 174.257 355.173 175.19 354.24C176.15 353.28 177.297 352.8 178.63 352.8H192.55C193.91 352.8 195.057 353.28 195.99 354.24C196.95 355.173 197.43 356.307 197.43 357.64V371.16C197.43 372.493 196.95 373.64 195.99 374.6C195.057 375.533 193.91 376 192.55 376H178.63ZM178.63 372.72H192.55C192.977 372.72 193.337 372.573 193.63 372.28C193.95 371.96 194.11 371.587 194.11 371.16V357.64C194.11 357.213 193.95 356.853 193.63 356.56C193.337 356.24 192.977 356.08 192.55 356.08H178.63C178.203 356.08 177.83 356.24 177.51 356.56C177.217 356.853 177.07 357.213 177.07 357.64V371.16C177.07 371.587 177.217 371.96 177.51 372.28C177.83 372.573 178.203 372.72 178.63 372.72ZM212.504 376V345.2H215.784V352.8H231.304C232.637 352.8 233.77 353.28 234.704 354.24C235.664 355.173 236.144 356.307 236.144 357.64V371.16C236.144 372.493 235.664 373.64 234.704 374.6C233.77 375.533 232.637 376 231.304 376H212.504ZM217.384 372.72H231.304C231.73 372.72 232.09 372.573 232.384 372.28C232.704 371.96 232.864 371.587 232.864 371.16V357.64C232.864 357.213 232.704 356.853 232.384 356.56C232.09 356.24 231.73 356.08 231.304 356.08H217.384C216.957 356.08 216.584 356.24 216.264 356.56C215.944 356.853 215.784 357.213 215.784 357.64V371.16C215.784 371.587 215.944 371.96 216.264 372.28C216.584 372.573 216.957 372.72 217.384 372.72ZM239.103 376V352.8H242.383V376H239.103ZM239.103 348.48V345.2H242.383V348.48H239.103ZM252.224 376C250.89 376 249.744 375.533 248.784 374.6C247.85 373.64 247.384 372.493 247.384 371.16V357.64C247.384 356.307 247.85 355.173 248.784 354.24C249.744 353.28 250.89 352.8 252.224 352.8H266.144C267.504 352.8 268.65 353.28 269.584 354.24C270.544 355.173 271.024 356.307 271.024 357.64V366.04H250.664V371.16C250.664 371.587 250.81 371.96 251.104 372.28C251.424 372.573 251.797 372.72 252.224 372.72H271.024V376H252.224ZM250.664 362.76H267.704V357.64C267.704 357.213 267.544 356.853 267.224 356.56C266.93 356.24 266.57 356.08 266.144 356.08H252.224C251.797 356.08 251.424 356.24 251.104 356.56C250.81 356.853 250.664 357.213 250.664 357.64V362.76ZM275.199 376V352.8H293.999C295.332 352.8 296.466 353.28 297.399 354.24C298.359 355.173 298.839 356.307 298.839 357.64V376H295.559V357.64C295.559 357.213 295.399 356.853 295.079 356.56C294.786 356.24 294.426 356.08 293.999 356.08H280.079C279.652 356.08 279.279 356.24 278.959 356.56C278.639 356.853 278.479 357.213 278.479 357.64V376H275.199ZM303.051 376V372.72H306.331V376H303.051ZM10.6111 476V447.24H34.6111C35.9444 447.24 37.0778 447.72 38.0111 448.68C38.9444 449.613 39.4111 450.733 39.4111 452.04V460.48C39.4111 461.787 38.9444 462.92 38.0111 463.88C37.0778 464.813 35.9444 465.28 34.6111 465.28H13.8511V476H10.6111ZM15.4111 462H34.6111C35.0378 462 35.3978 461.853 35.6911 461.56C36.0111 461.267 36.1711 460.907 36.1711 460.48V452.04C36.1711 451.613 36.0111 451.253 35.6911 450.96C35.3978 450.64 35.0378 450.48 34.6111 450.48H15.4111C14.9844 450.48 14.6111 450.64 14.2911 450.96C13.9978 451.253 13.8511 451.613 13.8511 452.04V460.48C13.8511 460.907 13.9978 461.267 14.2911 461.56C14.6111 461.853 14.9844 462 15.4111 462ZM42.0917 476V457.64C42.0917 456.307 42.5584 455.173 43.4917 454.24C44.4517 453.28 45.5984 452.8 46.9317 452.8H59.9717V456.08H46.9317C46.5051 456.08 46.1317 456.24 45.8117 456.56C45.5184 456.853 45.3717 457.213 45.3717 457.64V476H42.0917ZM67.3605 476C66.0271 476 64.8805 475.533 63.9205 474.6C62.9871 473.64 62.5205 472.493 62.5205 471.16V457.64C62.5205 456.307 62.9871 455.173 63.9205 454.24C64.8805 453.28 66.0271 452.8 67.3605 452.8H81.2805C82.6405 452.8 83.7871 453.28 84.7205 454.24C85.6805 455.173 86.1605 456.307 86.1605 457.64V466.04H65.8005V471.16C65.8005 471.587 65.9471 471.96 66.2405 472.28C66.5605 472.573 66.9338 472.72 67.3605 472.72H86.1605V476H67.3605ZM65.8005 462.76H82.8405V457.64C82.8405 457.213 82.6805 456.853 82.3605 456.56C82.0671 456.24 81.7071 456.08 81.2805 456.08H67.3605C66.9338 456.08 66.5605 456.24 66.2405 456.56C65.9471 456.853 65.8005 457.213 65.8005 457.64V462.76ZM94.9358 476C93.6024 476 92.4558 475.533 91.4958 474.6C90.5624 473.64 90.0958 472.493 90.0958 471.16V470.84H93.3758V471.16C93.3758 471.587 93.5224 471.96 93.8158 472.28C94.1358 472.573 94.5091 472.72 94.9358 472.72H108.856C109.282 472.72 109.642 472.573 109.936 472.28C110.256 471.96 110.416 471.587 110.416 471.16V467.6C110.416 467.173 110.256 466.813 109.936 466.52C109.642 466.2 109.282 466.04 108.856 466.04H94.9358C93.6024 466.04 92.4558 465.573 91.4958 464.64C90.5624 463.68 90.0958 462.533 90.0958 461.2V457.64C90.0958 456.307 90.5624 455.173 91.4958 454.24C92.4558 453.28 93.6024 452.8 94.9358 452.8H108.856C110.216 452.8 111.362 453.28 112.296 454.24C113.256 455.173 113.736 456.307 113.736 457.64V457.96H110.416V457.64C110.416 457.213 110.256 456.853 109.936 456.56C109.642 456.24 109.282 456.08 108.856 456.08H94.9358C94.5091 456.08 94.1358 456.24 93.8158 456.56C93.5224 456.853 93.3758 457.213 93.3758 457.64V461.2C93.3758 461.627 93.5224 462 93.8158 462.32C94.1358 462.613 94.5091 462.76 94.9358 462.76H108.856C110.216 462.76 111.362 463.24 112.296 464.2C113.256 465.133 113.736 466.267 113.736 467.6V471.16C113.736 472.493 113.256 473.64 112.296 474.6C111.362 475.533 110.216 476 108.856 476H94.9358ZM117.678 476V452.8H120.958V476H117.678ZM117.678 448.48V445.2H120.958V448.48H117.678ZM130.798 476C129.465 476 128.318 475.533 127.358 474.6C126.425 473.64 125.958 472.493 125.958 471.16V457.64C125.958 456.307 126.425 455.173 127.358 454.24C128.318 453.28 129.465 452.8 130.798 452.8H144.718C146.078 452.8 147.225 453.28 148.158 454.24C149.118 455.173 149.598 456.307 149.598 457.64V471.16C149.598 472.493 149.118 473.64 148.158 474.6C147.225 475.533 146.078 476 144.718 476H130.798ZM130.798 472.72H144.718C145.145 472.72 145.505 472.573 145.798 472.28C146.118 471.96 146.278 471.587 146.278 471.16V457.64C146.278 457.213 146.118 456.853 145.798 456.56C145.505 456.24 145.145 456.08 144.718 456.08H130.798C130.371 456.08 129.998 456.24 129.678 456.56C129.385 456.853 129.238 457.213 129.238 457.64V471.16C129.238 471.587 129.385 471.96 129.678 472.28C129.998 472.573 130.371 472.72 130.798 472.72ZM153.187 476V452.8H171.987C173.321 452.8 174.454 453.28 175.387 454.24C176.347 455.173 176.827 456.307 176.827 457.64V476H173.547V457.64C173.547 457.213 173.387 456.853 173.067 456.56C172.774 456.24 172.414 456.08 171.987 456.08H158.067C157.641 456.08 157.267 456.24 156.947 456.56C156.627 456.853 156.467 457.213 156.467 457.64V476H153.187ZM185.799 476C184.466 476 183.319 475.533 182.359 474.6C181.426 473.64 180.959 472.493 180.959 471.16V462.76H201.279V457.64C201.279 457.213 201.119 456.853 200.799 456.56C200.506 456.24 200.146 456.08 199.719 456.08H180.959V452.8H199.719C201.079 452.8 202.226 453.28 203.159 454.24C204.119 455.173 204.599 456.307 204.599 457.64V476H185.799ZM185.799 472.72H201.279V466.04H184.239V471.16C184.239 471.587 184.386 471.96 184.679 472.28C184.999 472.573 185.372 472.72 185.799 472.72ZM224.431 476C223.097 476 221.951 475.533 220.991 474.6C220.057 473.64 219.591 472.493 219.591 471.16V457.64C219.591 456.307 220.057 455.173 220.991 454.24C221.951 453.28 223.097 452.8 224.431 452.8H238.351C239.711 452.8 240.857 453.28 241.791 454.24C242.751 455.173 243.231 456.307 243.231 457.64V466.04H222.871V471.16C222.871 471.587 223.017 471.96 223.311 472.28C223.631 472.573 224.004 472.72 224.431 472.72H243.231V476H224.431ZM222.871 462.76H239.911V457.64C239.911 457.213 239.751 456.853 239.431 456.56C239.137 456.24 238.777 456.08 238.351 456.08H224.431C224.004 456.08 223.631 456.24 223.311 456.56C223.017 456.853 222.871 457.213 222.871 457.64V462.76ZM251.385 476C250.052 476 248.905 475.533 247.945 474.6C247.012 473.64 246.545 472.493 246.545 471.16V445.2H249.825V471.16C249.825 471.587 249.972 471.96 250.265 472.28C250.585 472.573 250.958 472.72 251.385 472.72H255.305V476H251.385ZM269.594 485.2V452.8H288.394C289.727 452.8 290.86 453.28 291.794 454.24C292.754 455.173 293.234 456.307 293.234 457.64V471.16C293.234 472.493 292.754 473.64 291.794 474.6C290.86 475.533 289.727 476 288.394 476H272.874V485.2H269.594ZM274.474 472.72H288.394C288.82 472.72 289.18 472.573 289.474 472.28C289.794 471.96 289.954 471.587 289.954 471.16V457.64C289.954 457.213 289.794 456.853 289.474 456.56C289.18 456.24 288.82 456.08 288.394 456.08H274.474C274.047 456.08 273.674 456.24 273.354 456.56C273.034 456.853 272.874 457.213 272.874 457.64V471.16C272.874 471.587 273.034 471.96 273.354 472.28C273.674 472.573 274.047 472.72 274.474 472.72ZM300.876 476C299.543 476 298.396 475.533 297.436 474.6C296.503 473.64 296.036 472.493 296.036 471.16V457.64C296.036 456.307 296.503 455.173 297.436 454.24C298.396 453.28 299.543 452.8 300.876 452.8H314.796C316.156 452.8 317.303 453.28 318.236 454.24C319.196 455.173 319.676 456.307 319.676 457.64V471.16C319.676 472.493 319.196 473.64 318.236 474.6C317.303 475.533 316.156 476 314.796 476H300.876ZM300.876 472.72H314.796C315.223 472.72 315.583 472.573 315.876 472.28C316.196 471.96 316.356 471.587 316.356 471.16V457.64C316.356 457.213 316.196 456.853 315.876 456.56C315.583 456.24 315.223 456.08 314.796 456.08H300.876C300.449 456.08 300.076 456.24 299.756 456.56C299.463 456.853 299.316 457.213 299.316 457.64V471.16C299.316 471.587 299.463 471.96 299.756 472.28C300.076 472.573 300.449 472.72 300.876 472.72ZM323.381 476V457.64C323.381 456.307 323.847 455.173 324.781 454.24C325.741 453.28 326.887 452.8 328.221 452.8H341.261V456.08H328.221C327.794 456.08 327.421 456.24 327.101 456.56C326.807 456.853 326.661 457.213 326.661 457.64V476H323.381ZM348.73 476C347.37 476 346.223 475.533 345.29 474.6C344.356 473.64 343.89 472.493 343.89 471.16V445.2H347.17V452.8H357.21V456.08H347.17V471.16C347.17 471.587 347.316 471.96 347.61 472.28C347.93 472.573 348.303 472.72 348.73 472.72H357.21V476H348.73ZM365.096 476C363.762 476 362.616 475.533 361.656 474.6C360.722 473.64 360.256 472.493 360.256 471.16V462.76H380.576V457.64C380.576 457.213 380.416 456.853 380.096 456.56C379.802 456.24 379.442 456.08 379.016 456.08H360.256V452.8H379.016C380.376 452.8 381.522 453.28 382.456 454.24C383.416 455.173 383.896 456.307 383.896 457.64V476H365.096ZM365.096 472.72H380.576V466.04H363.536V471.16C363.536 471.587 363.682 471.96 363.976 472.28C364.296 472.573 364.669 472.72 365.096 472.72ZM392.479 476C391.145 476 389.999 475.533 389.039 474.6C388.105 473.64 387.639 472.493 387.639 471.16V445.2H390.919V471.16C390.919 471.587 391.065 471.96 391.359 472.28C391.679 472.573 392.052 472.72 392.479 472.72H396.399V476H392.479ZM25.1972 526V502.8H28.4772V526H25.1972ZM25.1972 498.48V495.2H28.4772V498.48H25.1972ZM33.0116 526V502.8H51.8116C53.1449 502.8 54.2782 503.28 55.2116 504.24C56.1716 505.173 56.6516 506.307 56.6516 507.64V526H53.3716V507.64C53.3716 507.213 53.2116 506.853 52.8916 506.56C52.5982 506.24 52.2382 506.08 51.8116 506.08H37.8916C37.4649 506.08 37.0916 506.24 36.7716 506.56C36.4516 506.853 36.2916 507.213 36.2916 507.64V526H33.0116ZM65.6631 526C64.3031 526 63.1565 525.533 62.2231 524.6C61.2898 523.64 60.8231 522.493 60.8231 521.16V495.2H64.1031V502.8H74.1431V506.08H64.1031V521.16C64.1031 521.587 64.2498 521.96 64.5431 522.28C64.8631 522.573 65.2365 522.72 65.6631 522.72H74.1431V526H65.6631ZM81.9894 526C80.656 526 79.5094 525.533 78.5494 524.6C77.616 523.64 77.1494 522.493 77.1494 521.16V507.64C77.1494 506.307 77.616 505.173 78.5494 504.24C79.5094 503.28 80.656 502.8 81.9894 502.8H95.9094C97.2694 502.8 98.416 503.28 99.3494 504.24C100.309 505.173 100.789 506.307 100.789 507.64V516.04H80.4294V521.16C80.4294 521.587 80.576 521.96 80.8694 522.28C81.1894 522.573 81.5627 522.72 81.9894 522.72H100.789V526H81.9894ZM80.4294 512.76H97.4694V507.64C97.4694 507.213 97.3094 506.853 96.9894 506.56C96.696 506.24 96.336 506.08 95.9094 506.08H81.9894C81.5627 506.08 81.1894 506.24 80.8694 506.56C80.576 506.853 80.4294 507.213 80.4294 507.64V512.76ZM104.689 526V507.64C104.689 506.307 105.156 505.173 106.089 504.24C107.049 503.28 108.196 502.8 109.529 502.8H122.569V506.08H109.529C109.103 506.08 108.729 506.24 108.409 506.56C108.116 506.853 107.969 507.213 107.969 507.64V526H104.689ZM128.878 526C127.518 526 126.358 525.533 125.398 524.6C124.465 523.64 123.998 522.493 123.998 521.16V507.64C123.998 506.307 124.465 505.173 125.398 504.24C126.358 503.28 127.518 502.8 128.878 502.8H144.358V495.2H147.638V526H128.878ZM128.878 522.72H142.798C143.225 522.72 143.585 522.573 143.878 522.28C144.198 521.96 144.358 521.587 144.358 521.16V507.64C144.358 507.213 144.198 506.853 143.878 506.56C143.585 506.24 143.225 506.08 142.798 506.08H128.878C128.451 506.08 128.078 506.24 127.758 506.56C127.465 506.853 127.318 507.213 127.318 507.64V521.16C127.318 521.587 127.465 521.96 127.758 522.28C128.078 522.573 128.451 522.72 128.878 522.72ZM151.838 526V502.8H155.118V526H151.838ZM151.838 498.48V495.2H155.118V498.48H151.838ZM160.238 526V502.8H190.878C192.238 502.8 193.385 503.28 194.318 504.24C195.251 505.173 195.718 506.307 195.718 507.64V526H192.478V507.64C192.478 507.213 192.318 506.853 191.998 506.56C191.678 506.24 191.305 506.08 190.878 506.08H181.238C180.811 506.08 180.438 506.24 180.118 506.56C179.825 506.853 179.678 507.213 179.678 507.64V526H176.358V507.64C176.358 507.213 176.198 506.853 175.878 506.56C175.585 506.24 175.225 506.08 174.798 506.08H165.118C164.691 506.08 164.318 506.24 163.998 506.56C163.705 506.853 163.558 507.213 163.558 507.64V526H160.238ZM204.06 526C202.726 526 201.58 525.533 200.62 524.6C199.686 523.64 199.22 522.493 199.22 521.16V507.64C199.22 506.307 199.686 505.173 200.62 504.24C201.58 503.28 202.726 502.8 204.06 502.8H217.98C219.34 502.8 220.486 503.28 221.42 504.24C222.38 505.173 222.86 506.307 222.86 507.64V516.04H202.5V521.16C202.5 521.587 202.646 521.96 202.94 522.28C203.26 522.573 203.633 522.72 204.06 522.72H222.86V526H204.06ZM202.5 512.76H219.54V507.64C219.54 507.213 219.38 506.853 219.06 506.56C218.766 506.24 218.406 506.08 217.98 506.08H204.06C203.633 506.08 203.26 506.24 202.94 506.56C202.646 506.853 202.5 507.213 202.5 507.64V512.76ZM227.035 526V502.8H245.835C247.168 502.8 248.302 503.28 249.235 504.24C250.195 505.173 250.675 506.307 250.675 507.64V526H247.395V507.64C247.395 507.213 247.235 506.853 246.915 506.56C246.622 506.24 246.262 506.08 245.835 506.08H231.915C231.488 506.08 231.115 506.24 230.795 506.56C230.475 506.853 230.315 507.213 230.315 507.64V526H227.035ZM259.487 526C258.153 526 257.007 525.533 256.047 524.6C255.113 523.64 254.647 522.493 254.647 521.16V520.84H257.927V521.16C257.927 521.587 258.073 521.96 258.367 522.28C258.687 522.573 259.06 522.72 259.487 522.72H273.407C273.833 522.72 274.193 522.573 274.487 522.28C274.807 521.96 274.967 521.587 274.967 521.16V517.6C274.967 517.173 274.807 516.813 274.487 516.52C274.193 516.2 273.833 516.04 273.407 516.04H259.487C258.153 516.04 257.007 515.573 256.047 514.64C255.113 513.68 254.647 512.533 254.647 511.2V507.64C254.647 506.307 255.113 505.173 256.047 504.24C257.007 503.28 258.153 502.8 259.487 502.8H273.407C274.767 502.8 275.913 503.28 276.847 504.24C277.807 505.173 278.287 506.307 278.287 507.64V507.96H274.967V507.64C274.967 507.213 274.807 506.853 274.487 506.56C274.193 506.24 273.833 506.08 273.407 506.08H259.487C259.06 506.08 258.687 506.24 258.367 506.56C258.073 506.853 257.927 507.213 257.927 507.64V511.2C257.927 511.627 258.073 512 258.367 512.32C258.687 512.613 259.06 512.76 259.487 512.76H273.407C274.767 512.76 275.913 513.24 276.847 514.2C277.807 515.133 278.287 516.267 278.287 517.6V521.16C278.287 522.493 277.807 523.64 276.847 524.6C275.913 525.533 274.767 526 273.407 526H259.487ZM282.228 526V502.8H285.508V526H282.228ZM282.228 498.48V495.2H285.508V498.48H282.228ZM295.349 526C294.015 526 292.869 525.533 291.909 524.6C290.975 523.64 290.509 522.493 290.509 521.16V507.64C290.509 506.307 290.975 505.173 291.909 504.24C292.869 503.28 294.015 502.8 295.349 502.8H309.269C310.629 502.8 311.775 503.28 312.709 504.24C313.669 505.173 314.149 506.307 314.149 507.64V521.16C314.149 522.493 313.669 523.64 312.709 524.6C311.775 525.533 310.629 526 309.269 526H295.349ZM295.349 522.72H309.269C309.695 522.72 310.055 522.573 310.349 522.28C310.669 521.96 310.829 521.587 310.829 521.16V507.64C310.829 507.213 310.669 506.853 310.349 506.56C310.055 506.24 309.695 506.08 309.269 506.08H295.349C294.922 506.08 294.549 506.24 294.229 506.56C293.935 506.853 293.789 507.213 293.789 507.64V521.16C293.789 521.587 293.935 521.96 294.229 522.28C294.549 522.573 294.922 522.72 295.349 522.72ZM317.738 526V502.8H336.538C337.871 502.8 339.005 503.28 339.938 504.24C340.898 505.173 341.378 506.307 341.378 507.64V526H338.098V507.64C338.098 507.213 337.938 506.853 337.618 506.56C337.325 506.24 336.965 506.08 336.538 506.08H322.618C322.191 506.08 321.818 506.24 321.498 506.56C321.178 506.853 321.018 507.213 321.018 507.64V526H317.738ZM350.35 526C349.016 526 347.87 525.533 346.91 524.6C345.976 523.64 345.51 522.493 345.51 521.16V512.76H365.83V507.64C365.83 507.213 365.67 506.853 365.35 506.56C365.056 506.24 364.696 506.08 364.27 506.08H345.51V502.8H364.27C365.63 502.8 366.776 503.28 367.71 504.24C368.67 505.173 369.15 506.307 369.15 507.64V526H350.35ZM350.35 522.72H365.83V516.04H348.79V521.16C348.79 521.587 348.936 521.96 349.23 522.28C349.55 522.573 349.923 522.72 350.35 522.72ZM377.733 526C376.399 526 375.253 525.533 374.293 524.6C373.359 523.64 372.893 522.493 372.893 521.16V495.2H376.173V521.16C376.173 521.587 376.319 521.96 376.613 522.28C376.933 522.573 377.306 522.72 377.733 522.72H381.653V526H377.733ZM45.3748 585.2V552.8H64.1748C65.5082 552.8 66.6415 553.28 67.5748 554.24C68.5348 555.173 69.0148 556.307 69.0148 557.64V571.16C69.0148 572.493 68.5348 573.64 67.5748 574.6C66.6415 575.533 65.5082 576 64.1748 576H48.6548V585.2H45.3748ZM50.2548 572.72H64.1748C64.6015 572.72 64.9615 572.573 65.2548 572.28C65.5748 571.96 65.7348 571.587 65.7348 571.16V557.64C65.7348 557.213 65.5748 556.853 65.2548 556.56C64.9615 556.24 64.6015 556.08 64.1748 556.08H50.2548C49.8282 556.08 49.4548 556.24 49.1348 556.56C48.8148 556.853 48.6548 557.213 48.6548 557.64V571.16C48.6548 571.587 48.8148 571.96 49.1348 572.28C49.4548 572.573 49.8282 572.72 50.2548 572.72ZM76.6973 576C75.364 576 74.2173 575.533 73.2573 574.6C72.324 573.64 71.8573 572.493 71.8573 571.16V562.76H92.1773V557.64C92.1773 557.213 92.0173 556.853 91.6973 556.56C91.404 556.24 91.044 556.08 90.6173 556.08H71.8573V552.8H90.6173C91.9773 552.8 93.124 553.28 94.0573 554.24C95.0173 555.173 95.4973 556.307 95.4973 557.64V576H76.6973ZM76.6973 572.72H92.1773V566.04H75.1373V571.16C75.1373 571.587 75.284 571.96 75.5773 572.28C75.8973 572.573 76.2707 572.72 76.6973 572.72ZM99.4355 576V557.64C99.4355 556.307 99.9021 555.173 100.835 554.24C101.795 553.28 102.942 552.8 104.275 552.8H117.315V556.08H104.275C103.849 556.08 103.475 556.24 103.155 556.56C102.862 556.853 102.715 557.213 102.715 557.64V576H99.4355ZM124.744 576C123.411 576 122.264 575.533 121.304 574.6C120.371 573.64 119.904 572.493 119.904 571.16V562.76H140.224V557.64C140.224 557.213 140.064 556.853 139.744 556.56C139.451 556.24 139.091 556.08 138.664 556.08H119.904V552.8H138.664C140.024 552.8 141.171 553.28 142.104 554.24C143.064 555.173 143.544 556.307 143.544 557.64V576H124.744ZM124.744 572.72H140.224V566.04H123.184V571.16C123.184 571.587 123.331 571.96 123.624 572.28C123.944 572.573 124.318 572.72 124.744 572.72ZM158.576 576V557.64C158.576 556.307 159.043 555.173 159.976 554.24C160.936 553.28 162.083 552.8 163.416 552.8H176.456V556.08H163.416C162.989 556.08 162.616 556.24 162.296 556.56C162.003 556.853 161.856 557.213 161.856 557.64V576H158.576ZM183.845 576C182.512 576 181.365 575.533 180.405 574.6C179.472 573.64 179.005 572.493 179.005 571.16V557.64C179.005 556.307 179.472 555.173 180.405 554.24C181.365 553.28 182.512 552.8 183.845 552.8H197.765C199.125 552.8 200.272 553.28 201.205 554.24C202.165 555.173 202.645 556.307 202.645 557.64V566.04H182.285V571.16C182.285 571.587 182.432 571.96 182.725 572.28C183.045 572.573 183.418 572.72 183.845 572.72H202.645V576H183.845ZM182.285 562.76H199.325V557.64C199.325 557.213 199.165 556.853 198.845 556.56C198.552 556.24 198.192 556.08 197.765 556.08H183.845C183.418 556.08 183.045 556.24 182.725 556.56C182.432 556.853 182.285 557.213 182.285 557.64V562.76ZM210.58 585.16V581.84H225.06C225.487 581.84 225.847 581.68 226.14 581.36C226.46 581.067 226.62 580.707 226.62 580.28V576H211.14C209.807 576 208.66 575.533 207.7 574.6C206.767 573.64 206.3 572.493 206.3 571.16V557.64C206.3 556.307 206.767 555.173 207.7 554.24C208.66 553.28 209.807 552.8 211.14 552.8H225.06C226.42 552.8 227.567 553.28 228.5 554.24C229.433 555.173 229.9 556.307 229.9 557.64V580.28C229.9 581.64 229.433 582.787 228.5 583.72C227.567 584.68 226.42 585.16 225.06 585.16H210.58ZM211.14 572.72H225.06C225.487 572.72 225.847 572.573 226.14 572.28C226.46 571.96 226.62 571.587 226.62 571.16V557.64C226.62 557.213 226.46 556.853 226.14 556.56C225.847 556.24 225.487 556.08 225.06 556.08H211.14C210.713 556.08 210.34 556.24 210.02 556.56C209.727 556.853 209.58 557.213 209.58 557.64V571.16C209.58 571.587 209.727 571.96 210.02 572.28C210.34 572.573 210.713 572.72 211.14 572.72ZM233.459 576V557.64C233.459 556.307 233.926 555.173 234.859 554.24C235.819 553.28 236.966 552.8 238.299 552.8H251.339V556.08H238.299C237.872 556.08 237.499 556.24 237.179 556.56C236.886 556.853 236.739 557.213 236.739 557.64V576H233.459ZM258.728 576C257.394 576 256.248 575.533 255.288 574.6C254.354 573.64 253.888 572.493 253.888 571.16V557.64C253.888 556.307 254.354 555.173 255.288 554.24C256.248 553.28 257.394 552.8 258.728 552.8H272.648C274.008 552.8 275.154 553.28 276.088 554.24C277.048 555.173 277.528 556.307 277.528 557.64V566.04H257.168V571.16C257.168 571.587 257.314 571.96 257.608 572.28C257.928 572.573 258.301 572.72 258.728 572.72H277.528V576H258.728ZM257.168 562.76H274.208V557.64C274.208 557.213 274.048 556.853 273.728 556.56C273.434 556.24 273.074 556.08 272.648 556.08H258.728C258.301 556.08 257.928 556.24 257.608 556.56C257.314 556.853 257.168 557.213 257.168 557.64V562.76ZM286.303 576C284.97 576 283.823 575.533 282.863 574.6C281.93 573.64 281.463 572.493 281.463 571.16V570.84H284.743V571.16C284.743 571.587 284.89 571.96 285.183 572.28C285.503 572.573 285.876 572.72 286.303 572.72H300.223C300.65 572.72 301.01 572.573 301.303 572.28C301.623 571.96 301.783 571.587 301.783 571.16V567.6C301.783 567.173 301.623 566.813 301.303 566.52C301.01 566.2 300.65 566.04 300.223 566.04H286.303C284.97 566.04 283.823 565.573 282.863 564.64C281.93 563.68 281.463 562.533 281.463 561.2V557.64C281.463 556.307 281.93 555.173 282.863 554.24C283.823 553.28 284.97 552.8 286.303 552.8H300.223C301.583 552.8 302.73 553.28 303.663 554.24C304.623 555.173 305.103 556.307 305.103 557.64V557.96H301.783V557.64C301.783 557.213 301.623 556.853 301.303 556.56C301.01 556.24 300.65 556.08 300.223 556.08H286.303C285.876 556.08 285.503 556.24 285.183 556.56C284.89 556.853 284.743 557.213 284.743 557.64V561.2C284.743 561.627 284.89 562 285.183 562.32C285.503 562.613 285.876 562.76 286.303 562.76H300.223C301.583 562.76 302.73 563.24 303.663 564.2C304.623 565.133 305.103 566.267 305.103 567.6V571.16C305.103 572.493 304.623 573.64 303.663 574.6C302.73 575.533 301.583 576 300.223 576H286.303ZM313.885 576C312.552 576 311.405 575.533 310.445 574.6C309.512 573.64 309.045 572.493 309.045 571.16V562.76H329.365V557.64C329.365 557.213 329.205 556.853 328.885 556.56C328.592 556.24 328.232 556.08 327.805 556.08H309.045V552.8H327.805C329.165 552.8 330.312 553.28 331.245 554.24C332.205 555.173 332.685 556.307 332.685 557.64V576H313.885ZM313.885 572.72H329.365V566.04H312.325V571.16C312.325 571.587 312.472 571.96 312.765 572.28C313.085 572.573 313.458 572.72 313.885 572.72ZM336.623 576V557.64C336.623 556.307 337.09 555.173 338.023 554.24C338.983 553.28 340.13 552.8 341.463 552.8H354.503V556.08H341.463C341.036 556.08 340.663 556.24 340.343 556.56C340.05 556.853 339.903 557.213 339.903 557.64V576H336.623ZM356.39 576V572.72H359.67V576H356.39Z" fill="white"/>
</g>
<defs>
<filter id="filter0_d" x="0.385742" y="0.54599" width="401.319" height="592.654" filterUnits="userSpaceOnUse" color-interpolation-filters="sRGB">
<feFlood flood-opacity="0" result="BackgroundImageFix"/>
<feColorMatrix in="SourceAlpha" type="matrix" values="0 0 0 0 0 0 0 0 0 0 0 0 0 0 0 0 0 0 127 0" result="hardAlpha"/>
<feOffset dy="4"/>
<feGaussianBlur stdDeviation="2"/>
<feColorMatrix type="matrix" values="0 0 0 0 0 0 0 0 0 0 0 0 0 0 0 0 0 0 1 0"/>
<feBlend mode="normal" in2="BackgroundImageFix" result="effect1_dropShadow"/>
<feBlend mode="normal" in="SourceGraphic" in2="effect1_dropShadow" result="shape"/>
</filter>
</defs>
</svg>
